# xmcd CD database file
#
# Track frame offsets:
#	150
#	38294
#	68176
#	105287
#	149267
#
# Disc length: 2667 seconds
#
# Revision: 0
# Processed by: cddbd v1.5.2PL0 Copyright (c) Steve Scherf et al.
# Submitted via: CDex 1.51
#
DISCID=350a6905
DTITLE=Sun Ra - Lanquidity
DYEAR=1978
DGENRE=Jazz
TTITLE0=Lanquidity
TTITLE1=Where Pathways Meet
TTITLE2=That's How I Feel
TTITLE3=Twin Stars of Thence
TTITLE4=There are other Worlds (They have not Told You of)
EXTD=YEAR: 1978
EXTT0=
EXTT1=
EXTT2=
EXTT3=
EXTT4=
PLAYORDER=
